# xmcd
#
# Track frame offsets:
#	150
#	13040
#	28925
#	40997
#	56645
#	69097
#	84685
#	101517
#	117557
#	132150
#
# Disc length: 1947 seconds
#
# Revision: 7
# Processed by: cddbd v1.5.2PL0 Copyright (c) Steve Scherf et al.
# Submitted via: audiograbber 1.83.01
#
DISCID=8507990a
DTITLE=Verschiedene - Christmas in Branson, MO, USA
DYEAR=1900
DGENRE=Christmas
TTITLE0=Roy Clark - Jingel Bells
TTITLE1=Johnny Paycheck - Honky Tonk Christmas
TTITLE2=Faron Young - Winter Wonderland
TTITLE3=Connie Smith - What Child is This
TTITLE4=Moe Bandy - Away in a Manger
TTITLE5=Johnny Paycheck - Christmas is
TTITLE6=Faron Young - O Little Town of Bethlehem
TTITLE7=Roy Clark - Silent Night
TTITLE8=Connie Smith -  O Holy Night
TTITLE9=Moe Bandy - I`ll BE Home For Christmas
EXTD=
EXTT0=
EXTT1=
EXTT2=
EXTT3=
EXTT4=
EXTT5=
EXTT6=
EXTT7=
EXTT8=
EXTT9=
PLAYORDER=
